#N canvas 450 127 717 590 10;
#X obj 244 450 *~;
#X obj 268 422 line~;
#X msg 267 364 0.1 100;
#X msg 287 391 0 100;
#X text 339 361 on;
#X text 336 390 off;
#X obj 171 380 osc~ 1000;
#X obj 171 325 *~;
#X obj 190 276 osc~ 100;
#X msg 249 324 0.5 100;
#X obj 220 501 dac~;
#X obj 110 72 dumpOSC 6666;
#X obj 115 113 OSCroute /left /right;
#X obj 214 154 print right;
#X obj 123 150 print left;
#X obj 312 148 print noting;
#X obj 105 240 + 440;
#X obj 105 208 * 30;
#X obj 189 216 / 2;
#X connect 0 0 10 1;
#X connect 0 0 10 0;
#X connect 1 0 0 1;
#X connect 2 0 1 0;
#X connect 3 0 1 0;
#X connect 6 0 0 0;
#X connect 7 0 6 0;
#X connect 8 0 7 1;
#X connect 9 0 1 0;
#X connect 11 0 12 0;
#X connect 12 0 14 0;
#X connect 12 0 17 0;
#X connect 12 1 13 0;
#X connect 12 1 18 0;
#X connect 12 2 15 0;
#X connect 16 0 7 0;
#X connect 17 0 16 0;
#X connect 18 0 8 0;
